<?xml version="1.0" standalone="no"?>
<!DOCTYPE svg PUBLIC "-//W3C//DTD SVG 20010904//EN"
 "http://www.w3.org/TR/2001/REC-SVG-20010904/DTD/svg10.dtd">
<svg version="1.0" xmlns="http://www.w3.org/2000/svg"
 width="880.000000pt" height="880.000000pt" viewBox="0 0 880.000000 880.000000"
 preserveAspectRatio="xMidYMid meet">

<g transform="translate(0.000000,880.000000) scale(0.100000,-0.100000)"
fill="#000000" stroke="none">
<path d="M3980 8533 c-74 -7 -157 -18 -185 -23 -27 -5 -81 -14 -120 -20 -162
-27 -279 -51 -289 -61 -6 -5 -23 -9 -38 -9 -15 0 -45 -6 -65 -14 -21 -8 -65
-21 -98 -31 -33 -9 -69 -20 -80 -24 -11 -5 -45 -16 -75 -26 -58 -18 -114 -40
-142 -55 -10 -6 -24 -10 -32 -10 -8 0 -27 -6 -43 -14 -15 -8 -39 -19 -53 -24
-82 -34 -464 -226 -480 -242 -10 -10 -45 -31 -62 -36 -10 -4 -18 -9 -18 -13 0
-4 -17 -15 -37 -26 -21 -11 -42 -24 -48 -28 -5 -4 -55 -39 -110 -78 -55 -39
-112 -81 -127 -95 -15 -13 -32 -24 -37 -24 -5 0 -11 -3 -13 -8 -1 -4 -23 -23
-48 -42 -24 -19 -56 -46 -71 -60 -14 -14 -50 -45 -80 -70 -69 -58 -271 -260
-329 -329 -25 -30 -56 -66 -70 -80 -14 -15 -41 -47 -60 -71 -19 -25 -38 -46
-42 -48 -5 -2 -8 -8 -8 -13 0 -5 -11 -22 -24 -37 -14 -15 -56 -72 -95 -127
-39 -55 -74 -104 -78 -110 -4 -5 -17 -27 -28 -47 -11 -21 -22 -38 -26 -38 -4
0 -9 -8 -13 -17 -5 -18 -26 -53 -36 -63 -3 -3 -11 -16 -17 -30 -7 -14 -25 -47
-41 -75 -58 -102 -117 -222 -181 -370 -12 -27 -26 -58 -31 -67 -6 -10 -10 -24
-10 -32 0 -8 -6 -27 -14 -43 -20 -41 -32 -71 -51 -133 -10 -30 -21 -62 -26
-71 -4 -9 -11 -33 -14 -53 -4 -20 -11 -39 -16 -42 -5 -3 -9 -16 -9 -30 0 -14
-5 -34 -10 -45 -6 -10 -15 -38 -20 -61 -5 -24 -17 -74 -25 -113 -19 -80 -28
-130 -45 -230 -6 -38 -15 -92 -20 -120 -54 -300 -50 -815 10 -1229 5 -38 12
-78 16 -88 3 -11 10 -43 14 -72 12 -69 34 -169 54 -236 9 -30 19 -71 23 -90 3
-19 9 -39 13 -45 4 -5 11 -26 15 -45 4 -19 11 -39 15 -45 4 -5 10 -21 13 -35
9 -43 51 -157 117 -315 18 -44 204 -420 210 -425 4 -3 15 -21 26 -40 10 -19
25 -41 31 -48 7 -7 13 -20 13 -28 0 -8 3 -14 8 -14 4 0 16 -17 27 -37 11 -21
23 -42 28 -48 4 -5 33 -46 64 -90 61 -87 135 -187 143 -195 3 -3 21 -25 40
-50 19 -25 47 -58 62 -75 15 -16 48 -54 75 -84 121 -137 352 -357 473 -451 25
-19 47 -38 48 -42 2 -5 8 -8 13 -8 5 0 22 -11 37 -24 15 -14 72 -56 127 -95
55 -39 105 -74 111 -78 25 -19 50 -34 66 -39 10 -4 18 -10 18 -14 0 -4 11 -11
25 -14 14 -4 25 -11 25 -16 0 -6 4 -10 10 -10 5 0 38 -17 72 -38 56 -34 362
-187 428 -214 14 -5 39 -16 55 -23 17 -7 50 -20 75 -30 25 -9 53 -21 62 -26
10 -5 24 -9 33 -9 8 0 29 -6 47 -14 18 -8 60 -22 93 -31 33 -10 69 -21 80 -25
71 -26 123 -40 146 -40 14 0 29 -3 33 -8 11 -10 151 -39 301 -62 44 -6 96 -16
115 -21 140 -36 756 -46 1005 -16 283 34 306 37 316 43 6 3 34 10 62 14 88 15
161 30 182 39 27 11 113 33 153 39 17 2 32 8 32 12 0 4 18 10 40 14 23 3 49
10 58 15 9 5 42 16 72 26 62 19 92 31 133 51 16 8 35 14 43 14 8 0 22 4 32 10
9 5 44 21 77 35 187 82 384 183 490 253 11 7 28 15 38 18 9 4 17 10 17 14 0 4
8 10 18 14 16 5 41 20 66 39 6 4 56 39 111 78 55 39 112 81 127 95 15 13 32
24 37 24 5 0 11 3 13 8 2 4 23 23 48 42 24 19 56 46 71 60 14 14 50 45 80 70
69 58 271 260 329 329 25 30 56 66 70 80 14 15 41 47 60 71 19 25 38 47 42 48
5 2 8 8 8 13 0 5 11 22 24 37 14 15 56 72 95 127 39 55 74 105 78 111 19 25
34 50 39 67 4 9 10 17 14 17 4 0 10 8 14 18 3 9 10 24 15 32 56 83 197 358
260 505 12 28 26 58 31 67 6 10 10 25 10 33 0 8 4 23 10 33 15 29 37 84 55
142 10 30 21 62 25 70 4 9 11 31 14 50 4 19 11 44 15 55 16 38 41 132 41 151
0 11 4 24 9 30 5 5 14 36 20 69 7 33 16 80 21 105 5 25 14 81 20 125 7 44 16
96 20 115 46 184 46 974 1 1150 -5 19 -15 71 -21 115 -23 150 -52 290 -62 301
-5 4 -8 20 -8 36 0 16 -7 45 -15 65 -8 19 -15 46 -15 59 0 13 -3 24 -8 24 -4
0 -13 21 -20 48 -30 116 -71 228 -142 397 -30 71 -180 371 -212 423 -21 34
-38 67 -38 72 0 6 -4 10 -10 10 -5 0 -12 11 -16 25 -3 14 -10 25 -14 25 -4 0
-10 8 -14 18 -5 15 -18 38 -39 66 -4 6 -33 47 -64 91 -61 87 -135 187 -143
195 -3 3 -21 25 -40 50 -66 85 -171 201 -296 325 -131 130 -211 205 -219 205
-3 0 -16 10 -28 23 -12 12 -42 38 -67 57 -25 19 -50 39 -56 45 -26 22 -74 57
-169 124 -55 39 -105 74 -111 78 -25 19 -50 34 -66 39 -10 4 -18 10 -18 15 0
5 -6 9 -14 9 -8 0 -21 6 -28 13 -7 6 -29 21 -48 31 -19 11 -37 22 -40 25 -3 3
-41 24 -85 47 -44 23 -98 50 -120 62 -74 38 -254 118 -355 157 -25 10 -54 21
-65 25 -11 5 -45 16 -75 25 -30 10 -62 21 -70 25 -9 4 -31 11 -50 15 -19 4
-39 11 -45 15 -5 4 -26 10 -45 13 -19 4 -60 14 -90 23 -59 17 -166 42 -215 50
-16 3 -48 9 -70 15 -224 55 -858 84 -1155 52z m2246 -1634 c92 -38 118 -54
171 -107 56 -56 103 -132 103 -165 0 -9 5 -19 10 -22 6 -3 10 -52 10 -110 0
-91 -3 -111 -27 -167 -15 -35 -37 -74 -48 -87 -62 -75 -78 -91 -91 -91 -8 0
-14 -4 -14 -8 0 -9 -62 -42 -115 -62 -46 -17 -229 -14 -267 4 -17 9 -35 16
-40 16 -16 0 -91 56 -134 99 -47 46 -104 155 -104 197 0 48 -11 74 -31 74 -10
0 -21 5 -24 10 -3 6 -18 10 -32 10 -15 0 -56 7 -92 15 -88 20 -189 43 -226 50
-16 3 -61 12 -100 21 -79 16 -140 29 -235 47 -36 6 -69 15 -75 19 -5 3 -28 8
-50 9 -44 4 -43 7 -65 -106 -7 -33 -16 -78 -21 -100 -36 -172 -48 -230 -69
-335 -7 -36 -16 -74 -21 -85 -4 -11 -13 -47 -19 -80 -22 -120 -55 -277 -62
-295 -3 -8 -11 -44 -17 -80 -23 -128 -28 -155 -35 -171 -12 -27 11 -33 144
-41 69 -4 166 -14 215 -22 50 -8 116 -19 148 -25 78 -13 159 -31 177 -41 9 -4
36 -11 60 -15 24 -4 51 -11 60 -15 8 -4 40 -15 70 -24 52 -17 172 -59 215 -76
52 -20 322 -156 333 -167 7 -7 20 -13 28 -13 8 0 14 -4 14 -10 0 -5 7 -10 15
-10 8 0 15 -4 15 -10 0 -5 11 -12 25 -16 14 -3 25 -9 25 -13 0 -4 14 -15 32
-25 26 -16 33 -17 42 -5 16 20 83 69 94 69 6 0 12 3 14 8 4 10 65 38 125 57
86 27 370 10 403 -25 3 -3 27 -16 53 -30 44 -23 65 -38 122 -89 34 -30 85 -90
85 -100 0 -5 6 -16 13 -23 6 -7 20 -31 31 -53 10 -22 21 -47 25 -55 4 -8 16
-57 26 -107 18 -90 18 -95 0 -190 -10 -54 -21 -105 -25 -113 -31 -67 -74 -144
-92 -167 -50 -60 -138 -140 -174 -158 l-39 -18 0 -171 c0 -106 -5 -194 -13
-231 -20 -90 -42 -168 -53 -187 -5 -10 -9 -23 -9 -29 0 -18 -112 -239 -121
-239 -5 0 -9 -5 -9 -11 0 -12 -59 -92 -72 -97 -5 -2 -8 -9 -8 -15 -1 -19 -150
-179 -225 -242 -27 -22 -54 -46 -61 -52 -7 -7 -17 -13 -22 -13 -6 0 -12 -4
-14 -9 -1 -5 -39 -34 -83 -65 -44 -31 -85 -59 -91 -64 -22 -16 -51 -32 -94
-54 -25 -13 -47 -25 -50 -28 -5 -6 -193 -97 -225 -110 -11 -4 -36 -15 -57 -24
-20 -9 -42 -16 -50 -16 -8 0 -18 -4 -24 -8 -5 -5 -36 -17 -69 -26 -33 -10 -68
-22 -77 -27 -9 -5 -35 -12 -58 -15 -22 -4 -43 -11 -46 -15 -3 -5 -18 -9 -34
-9 -16 0 -41 -5 -57 -11 -48 -18 -238 -51 -418 -71 -141 -17 -565 -17 -720 0
-106 11 -165 20 -335 51 -74 14 -154 33 -175 42 -11 4 -36 11 -55 15 -19 3
-41 10 -50 14 -8 4 -40 15 -70 25 -30 9 -64 20 -75 25 -11 4 -40 16 -65 25
-25 10 -59 24 -77 31 -17 8 -36 14 -42 14 -6 0 -11 5 -11 10 0 6 -6 10 -12 10
-12 0 -137 59 -148 70 -3 3 -30 18 -60 34 -64 34 -194 118 -198 129 -2 4 -10
7 -17 7 -7 0 -15 4 -17 8 -1 4 -23 23 -48 42 -54 42 -255 242 -290 288 -14 18
-37 48 -52 65 -15 18 -28 36 -28 40 0 5 -11 23 -23 40 -36 48 -137 265 -137
292 0 9 -4 23 -9 33 -30 55 -45 172 -46 349 l0 181 -35 19 c-19 10 -41 24 -48
30 -7 7 -16 13 -20 13 -11 0 -94 82 -123 120 -39 52 -89 146 -89 167 0 11 -6
25 -13 32 -17 17 -17 315 1 333 6 6 12 20 12 31 0 35 81 167 139 225 38 40
107 92 120 92 6 0 11 4 11 9 0 5 8 11 18 14 9 3 48 17 86 31 60 23 85 26 186
26 124 0 169 -10 270 -58 53 -25 131 -79 138 -94 2 -5 8 -8 13 -8 9 0 17 6 52
35 25 22 194 122 257 152 105 51 201 94 255 114 28 11 59 23 70 28 11 4 47 16
80 26 33 9 69 21 80 26 25 11 93 27 164 40 30 5 58 12 63 15 24 15 294 53 453
63 77 6 143 10 147 10 9 1 27 57 39 122 21 112 38 196 54 264 9 39 20 93 26
120 5 28 16 82 25 120 8 39 19 90 24 115 5 25 16 79 25 120 9 41 20 99 26 129
5 30 12 58 15 63 3 4 9 29 14 56 5 26 16 83 25 127 9 44 20 103 26 131 22 121
57 159 142 151 29 -3 84 -13 122 -21 39 -9 104 -24 145 -32 41 -9 95 -20 120
-25 25 -6 74 -16 110 -23 36 -7 72 -15 80 -18 8 -3 44 -11 80 -18 90 -18 133
-27 220 -45 41 -9 87 -19 102 -22 22 -4 29 0 42 24 37 73 166 183 214 183 10
0 22 4 28 9 22 23 196 22 250 0z"/>
<path d="M3370 4418 c-239 -27 -415 -279 -359 -516 14 -59 40 -122 51 -122 4
0 8 -6 8 -13 0 -16 61 -81 111 -120 159 -121 414 -98 554 48 88 92 129 196
122 307 -5 94 -22 150 -64 216 -94 148 -246 220 -423 200z"/>
<path d="M5250 4419 c-201 -33 -360 -221 -360 -425 0 -60 40 -195 66 -225 8
-8 14 -18 14 -22 0 -8 81 -88 106 -104 34 -22 103 -53 118 -53 8 0 18 -4 21
-10 3 -6 48 -10 99 -10 95 0 122 7 215 53 48 24 151 120 151 141 0 8 3 16 8
18 25 11 62 142 62 219 0 152 -101 310 -242 377 -55 26 -161 54 -192 51 -6 -1
-36 -5 -66 -10z"/>
<path d="M3394 3040 c-12 -4 -31 -21 -44 -37 -34 -43 -24 -102 26 -151 41 -40
105 -90 139 -108 51 -27 83 -43 120 -59 22 -10 47 -21 55 -25 9 -4 31 -11 50
-15 19 -4 40 -11 45 -15 6 -4 24 -10 40 -13 17 -4 64 -13 105 -22 114 -24 321
-44 460 -44 159 0 420 29 512 57 152 46 141 42 228 78 53 22 174 93 178 105 2
5 9 9 16 9 6 0 32 20 56 45 42 43 45 49 44 101 0 76 -24 99 -100 99 -30 0 -58
-5 -62 -11 -13 -20 -117 -92 -167 -117 -93 -46 -133 -60 -272 -97 -239 -62
-646 -59 -908 9 -22 5 -61 15 -87 22 -27 7 -48 16 -48 21 0 4 -9 8 -21 8 -32
0 -160 74 -217 125 -19 16 -41 33 -50 37 -23 9 -73 8 -98 -2z"/>
</g>
</svg>
