<?xml version="1.0" standalone="no"?>
<!DOCTYPE svg PUBLIC "-//W3C//DTD SVG 20010904//EN"
 "http://www.w3.org/TR/2001/REC-SVG-20010904/DTD/svg10.dtd">
<svg version="1.0" xmlns="http://www.w3.org/2000/svg"
 width="736.000000pt" height="736.000000pt" viewBox="0 0 736.000000 736.000000"
 preserveAspectRatio="xMidYMid meet">

<g transform="translate(0.000000,736.000000) scale(0.100000,-0.100000)"
fill="#000000" stroke="none">
<path d="M3455 7354 c-22 -2 -92 -9 -155 -15 -257 -24 -557 -91 -820 -181
-534 -185 -998 -475 -1400 -878 -602 -601 -962 -1356 -1062 -2225 -7 -62 -13
-226 -13 -375 0 -149 6 -313 13 -375 100 -869 460 -1624 1062 -2225 601 -602
1356 -962 2225 -1062 143 -16 607 -16 750 0 869 100 1624 460 2225 1062 602
601 962 1356 1062 2225 7 62 13 226 13 375 0 149 -6 313 -13 375 -100 869
-460 1624 -1062 2225 -592 593 -1334 952 -2180 1056 -118 14 -557 27 -645 18z
m2386 -1197 c255 -97 409 -316 409 -581 0 -120 -19 -197 -71 -296 -87 -161
-219 -263 -400 -310 -191 -50 -413 5 -562 140 -72 65 -148 178 -172 254 l-17
55 -102 32 c-122 38 -536 164 -623 189 -34 10 -67 21 -73 25 -5 3 -10 4 -10 2
0 -4 -110 -363 -158 -517 -88 -280 -112 -357 -112 -366 0 -6 12 -10 28 -10
150 3 648 -91 849 -159 190 -65 457 -182 589 -260 l30 -18 60 40 c284 191 643
180 905 -28 169 -135 279 -355 279 -557 0 -129 -47 -198 -152 -221 -50 -12
-116 2 -164 34 -35 23 -74 110 -74 165 0 124 -92 260 -212 316 -54 25 -75 29
-148 29 -119 -1 -188 -33 -274 -127 -71 -78 -122 -108 -183 -108 -52 0 -76 11
-178 78 -100 66 -348 189 -478 237 -362 133 -726 195 -1147 195 -421 0 -785
-62 -1147 -195 -130 -48 -378 -171 -478 -237 -102 -67 -126 -78 -178 -78 -61
0 -112 30 -183 108 -86 94 -155 126 -274 127 -73 0 -94 -4 -148 -29 -120 -56
-212 -192 -212 -316 0 -55 -39 -142 -74 -165 -106 -70 -243 -40 -296 65 -28
54 -27 179 1 280 92 338 382 561 729 561 163 0 296 -41 434 -134 l60 -40 30
18 c85 50 315 158 423 199 174 65 192 71 364 115 233 59 464 95 684 107 61 4
113 9 116 13 3 3 22 58 42 121 39 124 154 496 218 705 22 72 53 169 69 217 16
47 34 105 40 127 12 46 59 105 101 127 42 21 134 17 225 -10 160 -48 624 -189
814 -248 107 -33 210 -64 228 -70 42 -12 95 -59 116 -102 8 -18 18 -59 21 -91
10 -101 62 -171 152 -205 64 -24 75 -24 141 -5 91 27 161 121 162 215 0 61
-38 139 -86 176 -48 38 -60 42 -148 55 -120 17 -186 84 -186 190 0 71 12 104
51 142 52 50 83 58 190 53 68 -4 114 -12 160 -29z m-2956 -2432 c96 -29 158
-83 208 -180 28 -54 31 -69 32 -150 0 -79 -4 -97 -28 -147 -36 -73 -119 -150
-192 -177 -108 -41 -248 -19 -338 51 -174 137 -167 428 12 552 91 63 203 82
306 51z m1836 -17 c192 -89 260 -337 140 -512 -87 -126 -260 -180 -406 -125
-73 27 -156 104 -192 177 -24 50 -28 68 -28 147 1 81 4 96 32 150 38 71 56 93
106 130 94 70 240 84 348 33z m-3403 -294 c48 -20 99 -69 112 -108 14 -46 15
-83 1 -161 -13 -70 -11 -302 2 -356 77 -311 286 -572 640 -803 207 -135 585
-290 833 -340 300 -62 413 -75 699 -80 329 -7 511 10 849 80 248 50 625 204
834 340 351 228 561 492 639 803 15 62 15 300 -1 378 -18 88 -13 122 28 183
47 71 163 101 242 64 64 -30 97 -83 120 -189 16 -70 25 -226 20 -322 -31 -533
-377 -1003 -991 -1342 -293 -162 -706 -297 -1080 -352 -334 -49 -836 -49
-1170 0 -78 12 -129 22 -285 55 -250 55 -580 178 -795 297 -532 294 -866 690
-965 1141 -55 250 -25 591 58 671 57 55 139 71 210 41z m1530 -786 c17 -13 54
-43 83 -66 109 -90 303 -163 505 -189 76 -10 412 -10 488 0 217 29 413 106
534 212 72 62 90 69 171 63 125 -9 204 -124 170 -245 -29 -106 -247 -262 -470
-336 -213 -72 -390 -98 -652 -98 -325 0 -580 52 -802 164 -205 102 -325 222
-325 323 0 68 50 147 112 177 51 25 148 22 186 -5z"/>
</g>
</svg>
